# xmcd
#
# Track frame offsets:
#	150
#	15377
#	29112
#	45627
#	57805
#	71485
#	84962
#	105432
#	121960
#	137807
#
# Disc length: 2129 seconds
#
# Revision: 0
# Processed by: cddbd v1.5.1PL0 Copyright (c) Steve Scherf et al.
# Submitted via: EasyCDDAExtractor 8.0.1.1
#
DISCID=7c084f0a
DTITLE=Mark Koenig - The Lonesome Kind
DYEAR=1991
DGENRE=Country
TTITLE0=Trail of Tears
TTITLE1=Pretend
TTITLE2=She Looks Alot Like You
TTITLE3=Your Turn to Fall
TTITLE4=It's a Big World
TTITLE5=Don't She Get Lonely
TTITLE6=Pretty Eyes
TTITLE7=David's Stone
TTITLE8=Evening Star
TTITLE9=The Lonesome Kind
EXTD=
EXTT0=
EXTT1=
EXTT2=
EXTT3=
EXTT4=
EXTT5=
EXTT6=
EXTT7=
EXTT8=
EXTT9=
PLAYORDER=
